<svg height='100px' width='100px'  fill="#0059B3" xmlns="http://www.w3.org/2000/svg" xmlns:xlink="http://www.w3.org/1999/xlink" version="1.1" x="0px" y="0px" viewBox="0 0 100 100" style="enable-background:new 0 0 100 100;" xml:space="preserve"><path d="M85.5,34.5C85.3,23.4,78,15.9,66.9,15.8c-11-0.1-22.1-0.1-33.1,0C23.1,16,15.5,23.3,15.3,33.5c-0.2,11.4-0.2,22.9,0,34.3  C15.4,78.6,23.1,86,33.9,86c5.5,0,10.9,0,16.4,0c5.5,0,11,0,16.6,0c10.8,0,18.5-7.5,18.6-18.4C85.6,56.5,85.6,45.5,85.5,34.5z   M57.8,68.1c-12.3,5.4-26.3-3.8-26.3-17.3c0-7.5,4.9-14.7,11.9-17.4c7.2-2.9,15.4-1.1,20.7,4.6c0.4,0.4,0.8,0.9,1.1,1.4  c1.2,1.7,1,2.9-0.9,3.9c-3.5,2-7,3.9-10.5,5.8c-2.8,1.5-3,2.3-1.1,4.9c2.1,3,4.3,6.1,6.4,9.1C61,65.7,60.6,66.9,57.8,68.1z   M65.1,62.9c-1.3,1.2-2.5,1.2-3.6-0.2c-2.1-2.8-4.2-5.6-6.2-8.5c-1.2-1.7-0.8-2.9,1-3.9c3-1.7,6.1-3.3,9.2-4.8  c1.9-0.9,2.8-0.4,3.5,1.5c0.5,1.5,0.7,3,0.8,5.1C69.7,55.9,68.3,59.7,65.1,62.9z"></path></svg>