<svg height='100px' width='100px'  fill="#0059B3" xmlns="http://www.w3.org/2000/svg" xmlns:xlink="http://www.w3.org/1999/xlink" version="1.1" x="0px" y="0px" viewBox="-0.0002441 0 208 176" enable-background="new -0.0002441 0 208 176" xml:space="preserve"><g><path fill="none" d="M127.4606934,30.1757813H86.939209c-3.5546875,0-6.4482422,2.8925781-6.4482422,6.4472656V41.875h53.4179688   v-5.2519531C133.9089355,33.0683594,131.0153809,30.1757813,127.4606934,30.1757813z"></path><path d="M30.8786621,128.0859375c0,14.6181641,11.8515625,26.4697266,26.4697266,26.4697266h99.7041016   c14.6191406,0,26.46875-11.8515625,26.46875-26.4697266V76.3564453H30.8786621V128.0859375z"></path><path d="M183.5212402,68.3447266c0-14.6181641-11.8496094-26.4697266-26.46875-26.4697266h-14.5234375v-5.2519531   c0-8.3081055-6.7587891-15.0673828-15.0683594-15.0673828H86.939209c-8.3076172,0-15.0683594,6.7592773-15.0683594,15.0673828   V41.875H57.3483887c-14.6181641,0-26.4697266,11.8515625-26.4697266,26.4697266v4.3173828h152.6425781V68.3447266z    M133.9089355,41.875H80.4909668v-5.2519531c0-3.5546875,2.8935547-6.4472656,6.4482422-6.4472656h40.5214844   c3.5546875,0,6.4482422,2.8925781,6.4482422,6.4472656V41.875z"></path></g></svg>