<svg xmlns="http://www.w3.org/2000/svg" xmlns:xlink="http://www.w3.org/1999/xlink" width="100" height="100" viewBox="0 0 100 100"><rect width="100%" height="100%" fill="#005596" rx="5" ry="5"></rect><g transform="translate(50 50) scale(0.69 0.69) rotate(0) translate(-50 -50)" style="fill:#ffffff"><svg fill="#ffffff" xmlns="http://www.w3.org/2000/svg" xmlns:xlink="http://www.w3.org/1999/xlink" xmlns:sketch="http://www.bohemiancoding.com/sketch/ns" viewBox="0 0 60 60" version="1.1" x="0px" y="0px"><title>65 - Profile (Solid)</title><desc>Created with Sketch.</desc><g stroke="none" stroke-width="1" fill="none" fill-rule="evenodd" sketch:type="MSPage"><g sketch:type="MSLayerGroup" fill="#ffffff"><path d="M7,3 C4.794,3 3,4.794 3,7 C3,9.206 4.794,11 7,11 C9.206,11 11,9.206 11,7 C11,4.794 9.206,3 7,3 L7,3 Z M7,9 C5.898,9 5,8.103 5,7 C5,5.898 5.898,5 7,5 C8.102,5 9,5.898 9,7 C9,8.103 8.102,9 7,9 L7,9 Z" sketch:type="MSShapeGroup"></path><path d="M16,3 C13.794,3 12,4.794 12,7 C12,9.206 13.794,11 16,11 C18.206,11 20,9.206 20,7 C20,4.794 18.206,3 16,3 L16,3 Z M16,9 C14.898,9 14,8.103 14,7 C14,5.898 14.898,5 16,5 C17.102,5 18,5.898 18,7 C18,8.103 17.102,9 16,9 L16,9 Z" sketch:type="MSShapeGroup"></path><path d="M25,3 C22.794,3 21,4.794 21,7 C21,9.206 22.794,11 25,11 C27.206,11 29,9.206 29,7 C29,4.794 27.206,3 25,3 L25,3 Z M25,9 C23.898,9 23,8.103 23,7 C23,5.898 23.898,5 25,5 C26.102,5 27,5.898 27,7 C27,8.103 26.102,9 25,9 L25,9 Z" sketch:type="MSShapeGroup"></path><path d="M0,60 L60,60 L60,0 L0,0 L0,60 Z M41,52 L18,52 C17.447,52 17,51.553 17,51 C17,50.447 17.447,50 18,50 L41,50 C41.553,50 42,50.447 42,51 C42,51.553 41.553,52 41,52 L41,52 Z M22,47 C22,46.447 22.447,46 23,46 L36,46 C36.553,46 37,46.447 37,47 C37,47.553 36.553,48 36,48 L23,48 C22.447,48 22,47.553 22,47 L22,47 Z M38.563,39.756 L38.613,39.801 L37.602,40.532 C37.567,40.557 37.531,40.578 37.497,40.602 C37.311,40.734 37.121,40.858 36.929,40.98 C36.797,41.063 36.665,41.143 36.532,41.221 C36.348,41.329 36.163,41.435 35.973,41.534 C35.8,41.624 35.624,41.705 35.449,41.787 C35.287,41.862 35.129,41.942 34.964,42.01 C34.628,42.15 34.286,42.275 33.94,42.386 C33.823,42.423 33.703,42.452 33.585,42.486 C33.323,42.562 33.059,42.631 32.792,42.69 C32.658,42.72 32.523,42.745 32.387,42.771 C32.116,42.821 31.844,42.862 31.57,42.896 C31.447,42.911 31.324,42.928 31.199,42.939 C30.802,42.976 30.403,43 30,43 C29.597,43 29.197,42.976 28.8,42.939 C28.675,42.928 28.552,42.91 28.429,42.895 C28.155,42.862 27.883,42.821 27.614,42.771 C27.477,42.745 27.34,42.719 27.204,42.689 C26.941,42.631 26.681,42.562 26.422,42.487 C26.3,42.453 26.177,42.423 26.056,42.384 C25.711,42.274 25.37,42.15 25.035,42.01 C24.864,41.939 24.699,41.855 24.531,41.777 C24.363,41.698 24.194,41.621 24.028,41.535 C23.832,41.432 23.641,41.322 23.45,41.211 C23.325,41.137 23.201,41.062 23.078,40.984 C22.877,40.857 22.679,40.727 22.485,40.589 C22.453,40.566 22.42,40.547 22.388,40.523 L21.411,39.815 L21.456,39.773 C18.732,37.388 17,33.896 17,30 C17,22.832 22.832,17 30,17 C37.168,17 43,22.832 43,30 C43,33.887 41.276,37.372 38.563,39.756 L38.563,39.756 Z M2,2 L58,2 L58,12 L2,12 L2,2 Z" sketch:type="MSShapeGroup"></path><path d="M31.202,36.387 L31.202,34.649 L31.453,34.365 C31.53,34.278 31.618,34.165 31.711,34.032 C32.114,33.464 32.431,32.826 32.653,32.134 L32.813,31.637 L33.311,31.483 C33.338,31.476 33.377,31.447 33.377,31.404 L33.377,29.955 L33.047,29.657 L33.014,29.152 L33.023,26.926 C33.024,26.907 33.095,26.167 32.579,25.594 C32.108,25.071 31.227,24.795 30.028,24.795 C28.83,24.795 27.948,25.071 27.477,25.594 C26.962,26.167 27.032,26.907 27.036,26.939 L27.043,27.057 L27.043,29.597 L26.713,29.895 L26.68,31.404 L27.021,31.625 L27.155,32.093 C27.455,33.399 28.251,34.377 28.259,34.387 L28.492,34.665 L28.492,36.352 C28.492,37.201 28.029,37.982 27.283,38.39 L24.856,39.714 C25.232,39.915 25.62,40.089 26.017,40.242 C26.059,40.259 26.102,40.273 26.145,40.289 C26.532,40.433 26.926,40.559 27.327,40.658 C27.33,40.659 27.333,40.659 27.336,40.66 C29.051,41.082 30.866,41.089 32.584,40.681 C32.586,40.68 32.588,40.68 32.59,40.679 C32.985,40.585 33.374,40.463 33.757,40.325 C33.816,40.304 33.875,40.283 33.934,40.26 C34.305,40.119 34.67,39.958 35.024,39.774 C35.038,39.767 35.053,39.761 35.068,39.753 L32.484,38.462 C31.693,38.065 31.202,37.271 31.202,36.387" sketch:type="MSShapeGroup"></path><path d="M30,19 C23.935,19 19,23.935 19,30 C19,33.402 20.553,36.446 22.986,38.466 C23.022,38.444 23.056,38.417 23.093,38.398 L26.325,36.634 C26.428,36.577 26.492,36.47 26.492,36.352 L26.492,35.361 C26.176,34.915 25.615,34.018 25.293,32.879 C24.903,32.491 24.68,31.965 24.68,31.404 L24.68,29.955 C24.68,29.538 24.809,29.131 25.043,28.788 L25.043,27.108 C25.011,26.747 24.971,25.418 25.959,24.291 C26.83,23.299 28.198,22.795 30.028,22.795 C31.858,22.795 33.227,23.299 34.098,24.291 C35.086,25.418 35.046,26.747 35.014,27.108 L35.014,28.788 C35.248,29.131 35.377,29.538 35.377,29.955 L35.377,31.404 C35.377,32.131 35.006,32.783 34.414,33.158 C34.142,33.889 33.782,34.569 33.345,35.187 C33.297,35.255 33.249,35.32 33.202,35.382 L33.202,36.387 C33.202,36.507 33.271,36.619 33.38,36.674 L36.841,38.403 C36.891,38.428 36.938,38.462 36.987,38.489 C39.436,36.47 41,33.414 41,30 C41,23.935 36.065,19 30,19" sketch:type="MSShapeGroup"></path></g></g></svg></g></svg>