<svg xmlns="http://www.w3.org/2000/svg" xmlns:xlink="http://www.w3.org/1999/xlink" width="100" height="100" viewBox="0 0 100 100"><rect width="100%" height="100%" fill="#0059B3" rx="5" ry="5"></rect><g transform="translate(50 50) scale(0.69 0.69) rotate(0) translate(-50 -50)" style="fill:#FFFFFF"><svg fill="#FFFFFF" xmlns="http://www.w3.org/2000/svg" data-name="Layer 1" viewBox="0 0 100 100" x="0px" y="0px"><title>132all</title><path d="M83.55,3a4.9,4.9,0,0,0-7,0L62.62,16.89a4.91,4.91,0,0,0,0,7L76.53,37.81a4.9,4.9,0,0,0,7,0L97.46,23.9a4.91,4.91,0,0,0,0-7Z"></path><path d="M18.47,3a17.4,17.4,0,1,0,17.4,17.4A17.42,17.42,0,0,0,18.47,3Z"></path><polygon points="45.48 15.76 48.03 17.89 38.8 17.89 38.8 22.89 48.03 22.89 45.48 25.02 48.69 28.86 58.81 20.39 48.69 11.93 45.48 15.76"></polygon><polygon points="77.54 42 77.54 51.22 75.41 48.67 71.57 51.88 80.04 62 88.51 51.88 84.67 48.67 82.54 51.22 82.54 42 77.54 42"></polygon><rect x="3.55" y="66.18" width="29.84" height="29.84"></rect><path d="M80,63.69a17.4,17.4,0,1,0,17.4,17.4A17.42,17.42,0,0,0,80,63.69Z"></path><polygon points="52.13 76.47 48.92 72.63 38.8 81.09 48.92 89.56 52.13 85.73 49.59 83.59 58.81 83.59 58.81 78.59 49.59 78.59 52.13 76.47"></polygon></svg></g></svg>