<svg xmlns="http://www.w3.org/2000/svg" xmlns:xlink="http://www.w3.org/1999/xlink" width="100" height="100" viewBox="0 0 100 100"><circle stroke="none" fill="#005596" r="48%" cx="50%" cy="50%"></circle><g transform="translate(50 50) scale(0.69 0.69) rotate(0) translate(-50 -50)" style="fill:#ffffff"><svg fill="#ffffff" xmlns="http://www.w3.org/2000/svg" xmlns:xlink="http://www.w3.org/1999/xlink" xml:space="preserve" version="1.1" style="shape-rendering:geometricPrecision;text-rendering:geometricPrecision;image-rendering:optimizeQuality;" viewBox="0 0 847 847" x="0px" y="0px" fill-rule="evenodd" clip-rule="evenodd"><defs><style type="text/css">
   
    .fil0 {fill:#ffffff}
   
  </style></defs><g><path class="fil0" d="M423 20c223,0 404,180 404,403 0,223 -181,404 -404,404 -223,0 -403,-181 -403,-404 0,-223 180,-403 403,-403zm0 324l114 -114c52,-52 132,27 80,79l-114 114 114 114c52,52 -28,132 -80,80l-114 -114 -114 114c-52,52 -131,-28 -79,-80l114 -114 -114 -114c-52,-52 27,-131 79,-79l114 114z"></path></g></svg></g></svg>