<svg xmlns="http://www.w3.org/2000/svg" xmlns:xlink="http://www.w3.org/1999/xlink" width="100" height="100" viewBox="0 0 100 100"><circle stroke="none" fill="#005596" r="48%" cx="50%" cy="50%"></circle><g transform="translate(50 50) scale(0.69 0.69) rotate(0) translate(-50 -50)" style="fill:#ffffff"><svg fill="#ffffff" xmlns="http://www.w3.org/2000/svg" xmlns:xlink="http://www.w3.org/1999/xlink" version="1.1" x="0px" y="0px" viewBox="0 0 100 100" style="enable-background:new 0 0 100 100;" xml:space="preserve"><path d="M91.038,85.058V64.125h-4.246V51.473c0-2.676-1.64-4.968-3.969-5.93v-0.179c0-0.828-0.597-1.514-1.384-1.657  c-0.038-2.418-2.01-4.374-4.437-4.374H61.437h-3.471h-8.015l-0.765-12.814h-6.478l-1.619,27.11H28.134l-1.619-27.11h-6.478  l-1.619,27.11h-5.038v10.496H9.23v20.932H5v5.998h90v-5.998H91.038z M14.723,79.3v-9.416h7.373V79.3H14.723z M30.523,79.3v-9.416  h7.373V79.3H30.523z M46.323,79.3v-9.416h7.373V79.3H46.323z M79.301,43.709c-0.78,0.149-1.37,0.832-1.37,1.656v0.179  c-2.329,0.962-3.969,3.253-3.969,5.93v12.652h-2.735V51.473c0-2.676-1.64-4.968-3.969-5.93v-0.179c0-0.828-0.597-1.514-1.384-1.657  c-0.013-0.821-0.263-1.58-0.664-2.236h11.793C78.25,41.472,79.264,42.47,79.301,43.709z M50.805,53.629l-0.726-12.157h7.887h3.471  c1.247,0,2.261,0.998,2.299,2.237c-0.78,0.149-1.37,0.832-1.37,1.656v0.179c-2.329,0.962-3.969,3.253-3.969,5.93v12.652h-2.637  V53.629H50.805z"></path><path d="M35.143,20.712c1.734,1.17,4.027,0.827,5.373-0.703c0.015,0.01,0.028,0.022,0.042,0.032  c0.394,0.266,0.814,0.464,1.244,0.607c-0.079,1.127,0.414,2.263,1.417,2.94c1.495,1.009,3.526,0.615,4.535-0.88  c0.837-1.24,0.696-2.839-0.224-3.927c0.027-0.037,0.056-0.071,0.082-0.109c1.57-2.326,0.957-5.484-1.369-7.054  c-2.326-1.57-5.484-0.957-7.054,1.369c-0.105,0.156-0.199,0.316-0.284,0.478c-1.746-0.666-3.78-0.08-4.871,1.535  C32.763,16.884,33.259,19.441,35.143,20.712z"></path><path d="M13.476,20.712c1.734,1.17,4.027,0.827,5.373-0.703c0.015,0.01,0.028,0.022,0.042,0.032  c0.394,0.266,0.814,0.464,1.244,0.607c-0.079,1.127,0.414,2.263,1.417,2.94c1.495,1.009,3.526,0.615,4.535-0.88  c0.837-1.24,0.696-2.839-0.224-3.927c0.027-0.037,0.056-0.071,0.082-0.109c1.57-2.326,0.957-5.484-1.369-7.054  c-2.326-1.57-5.484-0.957-7.054,1.369c-0.105,0.156-0.199,0.316-0.284,0.478c-1.746-0.666-3.78-0.08-4.871,1.535  C11.096,16.884,11.593,19.441,13.476,20.712z"></path></svg></g></svg>