<svg xmlns="http://www.w3.org/2000/svg" xmlns:xlink="http://www.w3.org/1999/xlink" width="100" height="100" viewBox="0 0 100 100"><circle stroke="none" fill="#005596" r="48%" cx="50%" cy="50%"></circle><g transform="translate(50 50) scale(0.69 0.69) rotate(0) translate(-50 -50)" style="fill:#ffffff"><svg fill="#ffffff" xmlns="http://www.w3.org/2000/svg" viewBox="0 0 100 100" x="0px" y="0px"><title>Hub symbol</title><g><path d="M77,5H23A18,18,0,0,0,5,23V77A18,18,0,0,0,23,95H77A18,18,0,0,0,95,77V23A18,18,0,0,0,77,5Zm5.2,45.4a7.566,7.566,0,0,1-6.553-3.786l-15.2,5.01a10.5,10.5,0,0,1-2.985,9.362l9.32,12.684A7.6,7.6,0,1,1,64.293,75.5L54.971,62.819a10.6,10.6,0,0,1-9.943,0L35.707,75.5a7.584,7.584,0,1,1-2.492-1.835l9.32-12.684a10.5,10.5,0,0,1-2.985-9.362l-15.2-5.01a7.566,7.566,0,1,1,1.023-3.789,7.651,7.651,0,0,1-.051.852l15.192,5.009a10.61,10.61,0,0,1,7.914-5.732L48.4,26.845a7.571,7.571,0,1,1,3.094.024l.032,16.077a10.609,10.609,0,0,1,7.956,5.739l15.192-5.009A7.574,7.574,0,1,1,82.2,50.4Z"></path></g></svg></g></svg>