<svg xmlns="http://www.w3.org/2000/svg" xmlns:xlink="http://www.w3.org/1999/xlink" width="100" height="100" viewBox="0 0 100 100"><circle stroke="none" fill="#005596" r="48%" cx="50%" cy="50%"></circle><g transform="translate(50 50) scale(0.69 0.69) rotate(0) translate(-50 -50)" style="fill:#ffffff"><svg fill="#ffffff" xmlns="http://www.w3.org/2000/svg" xmlns:xlink="http://www.w3.org/1999/xlink" version="1.1" x="0px" y="0px" viewBox="0 0 100 100" style="enable-background:new 0 0 100 100;" xml:space="preserve"><path d="M15.8,52.3h-1.5l-1.1,3.9h3l75.9,0v-3.9H48.5H15.8z"></path><g><path d="M15,71.2c-0.9-0.4-4-2.1-4.8-0.5c-0.7,1.2,0.5,1.5,0.5,3.4s-1.1,2.3-0.5,3.4c0.8,1.6,3.9,0,4.8-0.5c1.3-0.6,2.1-1.7,2.1-3   C17.1,73,16.3,71.8,15,71.2z"></path><path d="M15,84.9c-0.9-0.4-4-2.1-4.8-0.5c-0.7,1.2,0.5,1.5,0.5,3.4s-1.1,2.3-0.5,3.4c0.8,1.6,3.9,0,4.8-0.5c1.3-0.6,2.1-1.7,2.1-3   C17.1,86.6,16.3,85.5,15,84.9z"></path><path d="M19.1,84.3c-2,0-0.3,1.6-0.3,3.7c0,2-1.7,3.7,0.3,3.7h65.3V57.9h-7.3v26.4H19.1z"></path><path d="M68.4,57.9v4.8l-5.2-4.2v-0.7h-1.4v1.2v7.2V68v2.3h-6.1h-2.1h-8.9h-2.1v0h-0.5h-8.9h-2.1h-8.9h-2.1h-0.4   c-0.2,0-1,0-1.4,0.5c-0.4,0.5-0.2,1.2,0.1,1.9c0.2,0.5,0.3,1,0.3,1.6c0,0.6-0.2,1.1-0.3,1.6c0,0.1,0,0.1-0.1,0.2   c-0.1,0.5-0.2,0.9-0.1,1.3c0,0.1,0.1,0.2,0.2,0.4c0.4,0.5,1.1,0.5,1.4,0.5H21h8.9h2.1H41h2.1h0.5H52h0.5h1.6h0.5H63h0.5h1.6h0.5   h4.2v-3.8v-1.7v-7.2v-1.7v-5.9H68.4z M19.7,76.8c-0.1,0-0.1,0-0.2,0c0-0.2,0.1-0.4,0.2-0.6c0.2-0.6,0.4-1.2,0.4-2   c0-0.8-0.2-1.5-0.4-2c-0.1-0.2-0.1-0.4-0.2-0.6c0,0,0.1,0,0.2,0h2.1l6.4,5.2H19.7z M30.3,76.8l-6.4-5.2h8.9l6.4,5.2H30.3z    M50.3,76.8h-6.9h-2l-6.4-5.2h7.8h1.1h0.5l6.4,5.2H50.3z M61.3,76.8h-8.4h-0.5l-6.4-5.2h0.5h8.4h0.5l6.4,5.2H61.3z M68.4,76.8h-4.5   l-4.1-3.3l-2.4-1.9h0.2h5.6v-2.5l5.2,4.2V76.8z M68.4,71.6l-5.2-4.2v-7.2l5.2,4.2V71.6z"></path></g><path d="M86.4,52.4H86L79.9,9.9h-4.8V5.3h-3v4.6h-6.2l-6.2,42.6 M75.1,12.9h2.6l0.9,3.2L75.1,20V12.9z M68,12.9h4v4.6l3.8,3.9  l2.8-2.8l1.4,9.8L67.6,16L68,12.9z M80.4,30.8l-5.4,5.4V25.5L80.4,30.8z M67.3,18.4L72,23v10.7l3.8,3.9l4.9-4.9l2.2,14.8L65.8,30.8  l3.2-3.7v-2.7l-3.7,4.2L67.3,18.4z M62.2,52.4l-0.3-1.2l7.1-7.9v-2.7l-6.6,7L65,32.5l7,6.7v13.3H62.2z M75.1,52.4V41.7l8.6,9.4  l-0.2,1.4H75.1z"></path></svg></g></svg>